# xmcd
#
# Track frame offsets:
#	183
#	27795
#	50063
#	71495
#	101170
#	116933
#	139563
#	155168
#
# Disc length: 2600 seconds
#
# Revision: 10
# Processed by: cddbd v1.5.2PL0 Copyright (c) Steve Scherf et al.
# Submitted via: audiograbber 1.83.01
#
DISCID=730a2608
DTITLE=Kitaro - Ten-Jiku (Silk Road IV) (formerly India)
DYEAR=1983
DGENRE=Electronic
TTITLE0=The Mist
TTITLE1=Caravansary
TTITLE2=Mountain Streams
TTITLE3=Pray
TTITLE4=Ganga
TTITLE5=Sunset
TTITLE6=Linden
TTITLE7=Moon Star
EXTD=
EXTT0=
EXTT1=
EXTT2=
EXTT3=
EXTT4=
EXTT5=
EXTT6=
EXTT7=
PLAYORDER=
